<svg width="1280" height="640" viewBox="0 0 1280 640" xmlns="http://www.w3.org/2000/svg">
  <rect width="1280" height="640" fill="#050505"/>
  <rect x="58" y="58" width="1164" height="524" rx="34" fill="#0a0a0a" stroke="#232323" stroke-width="2"/>

  <text x="92" y="130" fill="#f5f5f5" font-family="Arial, sans-serif" font-size="54" font-weight="700">
    Split-Flap Card
  </text>

  <text x="95" y="185" fill="#b9b9b9" font-family="Arial, sans-serif" font-size="30">
    Home Assistant Lovelace custom card
  </text>

  <g transform="translate(155 252)">
    <g transform="translate(0 0)">
      <rect x="5" y="10" width="112" height="148" rx="14" fill="#000000"/>
      <rect width="112" height="148" rx="14" fill="#111111" stroke="#2a2a2a" stroke-width="2"/>
      <path d="M2 14 Q2 2 14 2 H98 Q110 2 110 14 V74 H2Z" fill="#1b1b1b"/>
      <rect x="2" y="74" width="108" height="72" fill="#090909"/>
      <line x1="0" y1="74" x2="112" y2="74" stroke="#000000" stroke-width="4"/>
      <text x="56" y="100" text-anchor="middle" fill="#dcb215" font-family="monospace" font-size="74" font-weight="700">N</text>
    </g>

    <g transform="translate(126 0)">
      <rect x="5" y="10" width="112" height="148" rx="14" fill="#000000"/>
      <rect width="112" height="148" rx="14" fill="#111111" stroke="#2a2a2a" stroke-width="2"/>
      <path d="M2 14 Q2 2 14 2 H98 Q110 2 110 14 V74 H2Z" fill="#1b1b1b"/>
      <rect x="2" y="74" width="108" height="72" fill="#090909"/>
      <line x1="0" y1="74" x2="112" y2="74" stroke="#000000" stroke-width="4"/>
      <text x="56" y="100" text-anchor="middle" fill="#dcb215" font-family="monospace" font-size="74" font-weight="700">Ä</text>
    </g>

    <g transform="translate(252 0)">
      <rect x="5" y="10" width="112" height="148" rx="14" fill="#000000"/>
      <rect width="112" height="148" rx="14" fill="#111111" stroke="#2a2a2a" stroke-width="2"/>
      <path d="M2 14 Q2 2 14 2 H98 Q110 2 110 14 V74 H2Z" fill="#1b1b1b"/>
      <rect x="2" y="74" width="108" height="72" fill="#090909"/>
      <line x1="0" y1="74" x2="112" y2="74" stroke="#000000" stroke-width="4"/>
      <text x="56" y="100" text-anchor="middle" fill="#dcb215" font-family="monospace" font-size="74" font-weight="700">S</text>
    </g>

    <g transform="translate(378 0)">
      <rect x="5" y="10" width="112" height="148" rx="14" fill="#000000"/>
      <rect width="112" height="148" rx="14" fill="#111111" stroke="#2a2a2a" stroke-width="2"/>
      <path d="M2 14 Q2 2 14 2 H98 Q110 2 110 14 V74 H2Z" fill="#1b1b1b"/>
      <rect x="2" y="74" width="108" height="72" fill="#090909"/>
      <line x1="0" y1="74" x2="112" y2="74" stroke="#000000" stroke-width="4"/>
      <text x="56" y="100" text-anchor="middle" fill="#dcb215" font-family="monospace" font-size="74" font-weight="700">S</text>
    </g>

    <g transform="translate(504 0)">
      <rect x="5" y="10" width="112" height="148" rx="14" fill="#000000"/>
      <rect width="112" height="148" rx="14" fill="#111111" stroke="#2a2a2a" stroke-width="2"/>
      <path d="M2 14 Q2 2 14 2 H98 Q110 2 110 14 V74 H2Z" fill="#1b1b1b"/>
      <rect x="2" y="74" width="108" height="72" fill="#090909"/>
      <line x1="0" y1="74" x2="112" y2="74" stroke="#000000" stroke-width="4"/>
      <text x="56" y="100" text-anchor="middle" fill="#dcb215" font-family="monospace" font-size="74" font-weight="700">J</text>
    </g>

    <g transform="translate(630 0)">
      <rect x="5" y="10" width="112" height="148" rx="14" fill="#000000"/>
      <rect width="112" height="148" rx="14" fill="#111111" stroke="#2a2a2a" stroke-width="2"/>
      <path d="M2 14 Q2 2 14 2 H98 Q110 2 110 14 V74 H2Z" fill="#1b1b1b"/>
      <rect x="2" y="74" width="108" height="72" fill="#090909"/>
      <line x1="0" y1="74" x2="112" y2="74" stroke="#000000" stroke-width="4"/>
      <text x="56" y="100" text-anchor="middle" fill="#dcb215" font-family="monospace" font-size="74" font-weight="700">Ö</text>
    </g>

    <g transform="translate(756 0)">
      <rect x="5" y="10" width="112" height="148" rx="14" fill="#000000"/>
      <rect width="112" height="148" rx="14" fill="#111111" stroke="#2a2a2a" stroke-width="2"/>
      <path d="M2 14 Q2 2 14 2 H98 Q110 2 110 14 V74 H2Z" fill="#1b1b1b"/>
      <rect x="2" y="74" width="108" height="72" fill="#090909"/>
      <line x1="0" y1="74" x2="112" y2="74" stroke="#000000" stroke-width="4"/>
      <text x="56" y="100" text-anchor="middle" fill="#dcb215" font-family="monospace" font-size="74" font-weight="700">C</text>
    </g>
  </g>

  <text x="95" y="555" fill="#dcb215" font-family="Arial, sans-serif" font-size="25">
    Multilingual charsets • Swedish Å Ä Ö • Entity states • HACS-ready
  </text>
</svg>
