<svg xmlns="http://www.w3.org/2000/svg" width="512" height="512" viewBox="0 0 512 512" role="img" aria-labelledby="title desc">
  <title id="title">Split-Flap Card icon</title>
  <desc id="desc">Compact split-flap icon mark for Split-Flap Card.</desc>
  <defs>
    <linearGradient id="bg" x1="0" y1="0" x2="1" y2="1">
      <stop offset="0" stop-color="#071014"/>
      <stop offset="1" stop-color="#111d23"/>
    </linearGradient>
    <linearGradient id="top" x1="0" y1="0" x2="0" y2="1">
      <stop offset="0" stop-color="#2b3336"/>
      <stop offset="1" stop-color="#151b1e"/>
    </linearGradient>
    <linearGradient id="bottom" x1="0" y1="0" x2="0" y2="1">
      <stop offset="0" stop-color="#12171a"/>
      <stop offset="1" stop-color="#050708"/>
    </linearGradient>
  </defs>
  <rect width="512" height="512" rx="96" fill="url(#bg)"/>
  <rect x="64" y="92" width="384" height="328" rx="54" fill="#030303" stroke="#263942" stroke-width="8"/>
  <g transform="translate(112 142)">
    <g>
      <rect x="0" y="0" width="80" height="190" rx="16" fill="#0b0b0b" stroke="#333" stroke-width="2"/>
      <rect x="0" y="0" width="80" height="95" rx="16" fill="url(#top)"/>
      <rect x="0" y="95" width="80" height="95" rx="16" fill="url(#bottom)"/>
      <rect x="0" y="93" width="80" height="5" fill="#010101"/>
      <text x="40" y="128" text-anchor="middle" font-family="Barlow Condensed, Arial Narrow, sans-serif" font-size="104" font-weight="900" fill="#f7d53b">S</text>
    </g>
    <g transform="translate(104 0)">
      <rect x="0" y="0" width="80" height="190" rx="16" fill="#0b0b0b" stroke="#333" stroke-width="2"/>
      <rect x="0" y="0" width="80" height="95" rx="16" fill="url(#top)"/>
      <rect x="0" y="95" width="80" height="95" rx="16" fill="url(#bottom)"/>
      <rect x="0" y="93" width="80" height="5" fill="#010101"/>
      <text x="40" y="128" text-anchor="middle" font-family="Barlow Condensed, Arial Narrow, sans-serif" font-size="104" font-weight="900" fill="#f7d53b">F</text>
    </g>
    <g transform="translate(208 0)">
      <rect x="0" y="0" width="80" height="190" rx="16" fill="#0b0b0b" stroke="#333" stroke-width="2"/>
      <rect x="0" y="0" width="80" height="95" rx="16" fill="url(#top)"/>
      <rect x="0" y="95" width="80" height="95" rx="16" fill="url(#bottom)"/>
      <rect x="0" y="93" width="80" height="5" fill="#010101"/>
      <path d="M27 58h34v21H44v60H27z" fill="#f7d53b"/>
    </g>
  </g>
</svg>
